<?xml version="1.0" standalone="no"?>
<!DOCTYPE svg PUBLIC "-//W3C//DTD SVG 20010904//EN"
 "http://www.w3.org/TR/2001/REC-SVG-20010904/DTD/svg10.dtd">
<svg version="1.0" xmlns="http://www.w3.org/2000/svg"
 width="500.000000pt" height="500.000000pt" viewBox="0 0 500.000000 500.000000"
 preserveAspectRatio="xMidYMid meet">

<g transform="translate(0.000000,500.000000) scale(0.100000,-0.100000)"
fill="#000000" stroke="none">
<path d="M1894 3546 c-17 -8 -42 -29 -55 -47 -22 -31 -24 -45 -27 -176 l-3
-143 -96 0 c-109 0 -154 -16 -184 -64 -18 -30 -19 -58 -17 -691 l3 -660 29
-53 c37 -65 83 -107 155 -140 l56 -26 742 2 c731 2 744 3 800 24 71 26 144 97
181 176 l27 57 0 786 0 786 -30 48 c-35 57 -100 110 -153 125 -24 6 -278 10
-717 10 -549 -1 -686 -3 -711 -14z m1443 -122 c15 -12 37 -36 48 -55 20 -33
20 -52 20 -779 l0 -745 -23 -46 c-27 -55 -69 -101 -114 -126 -31 -17 -82 -18
-730 -21 -384 -1 -698 0 -698 3 0 3 9 16 21 28 57 60 54 10 57 912 1 457 4
836 7 843 4 10 144 12 694 10 683 -3 690 -3 718 -24z m-1527 -993 l0 -640 -23
-26 c-14 -17 -36 -28 -62 -32 -56 -7 -90 21 -104 88 -15 68 -15 1202 -1 1230
9 17 22 19 100 19 l90 0 0 -639z"/>
<path d="M2120 3061 c-6 -12 -10 -119 -10 -284 0 -212 3 -267 14 -276 9 -8 87
-11 262 -9 l249 3 0 290 0 290 -252 3 c-241 2 -253 1 -263 -17z"/>
<path d="M2788 2875 c-8 -19 -8 -28 2 -40 11 -13 43 -15 218 -13 182 3 206 5
216 21 8 12 8 22 0 35 -10 15 -34 17 -218 20 l-206 2 -12 -25z"/>
<path d="M2792 2618 c-16 -16 -15 -43 2 -57 9 -8 75 -11 216 -9 181 3 204 5
214 21 8 12 8 22 0 35 -10 15 -34 17 -215 20 -151 2 -208 -1 -217 -10z"/>
<path d="M2142 2288 c-16 -16 -15 -43 2 -57 9 -8 157 -10 531 -9 481 3 519 4
529 21 8 12 8 22 0 35 -10 16 -48 17 -531 20 -395 2 -522 -1 -531 -10z"/>
<path d="M2142 2008 c-16 -16 -15 -43 2 -57 9 -8 157 -10 531 -9 481 3 519 4
529 21 8 12 8 22 0 35 -10 16 -48 17 -531 20 -395 2 -522 -1 -531 -10z"/>
</g>
</svg>
